# Blender v2.65 (sub 0) OBJ File: 'boat.blend'
# www.blender.org
o Waterclip_waterclip
v 3.137690 1.100000 0.306391
v -3.584408 1.100000 1.860566
v 1.020014 1.100000 1.901100
v 2.488991 1.100000 1.130779
v -3.665494 1.100000 0.800000
v -3.665494 1.100000 0.000000
v 3.137690 1.100000 -0.306391
v -3.584408 1.100000 -1.860566
v 1.020014 1.100000 -1.901100
v 2.488991 1.100000 -1.130779
v 3.205263 1.100000 0.000000
v -3.665494 1.100000 -0.800000
vn 0.000000 -1.000000 0.000000
s off
f 5//1 6//1 11//1
f 11//1 1//1 5//1
f 5//1 1//1 4//1
f 2//1 5//1 4//1
f 2//1 4//1 3//1
f 8//1 9//1 10//1
f 8//1 10//1 12//1
f 10//1 7//1 12//1
f 7//1 6//1 12//1
f 7//1 11//1 6//1
o Trim_trim
v -3.795898 0.900000 1.956976
v -3.900000 0.900000 0.800000
v 1.021726 0.900000 2.029390
v -3.795898 1.100000 1.956976
v -3.900000 1.100000 0.800000
v 1.021726 1.100000 2.029390
v 5.000000 0.900000 0.200000
v 5.000000 1.100000 0.200000
v 3.386580 0.900000 1.147843
v 3.386580 1.100000 1.147843
v 2.447929 0.900000 1.623199
v 2.447929 1.100000 1.623199
v 4.355799 1.100000 0.410546
v 4.355799 0.900000 0.410546
v -3.673648 0.900000 2.058358
v -3.673648 1.100000 2.058358
v -3.665494 1.100000 0.800000
v 2.488991 1.100000 1.130779
v 1.020014 1.100000 1.901100
v -3.584408 1.100000 1.860566
v 3.137690 1.100000 0.306391
v 2.537689 0.900000 0.306391
v 1.888991 0.900000 1.130779
v 0.956486 0.900000 1.833537
v -3.584408 0.900000 1.860566
v -3.665494 0.900000 0.800000
v -3.700000 0.400000 0.600000
v -3.665494 0.400000 0.600000
v -3.795898 0.900000 -1.956976
v -3.900000 0.900000 -0.800000
v 5.000000 0.900000 0.000000
v 1.021726 0.900000 -2.029390
v -3.795898 1.100000 -1.956976
v -3.900000 1.100000 -0.800000
v 5.000000 1.100000 0.000000
v 1.021726 1.100000 -2.029390
v 5.000000 0.900000 -0.200000
v 5.000000 1.100000 -0.200000
v 3.386580 0.900000 -1.147843
v 3.386580 1.100000 -1.147843
v 2.447929 0.900000 -1.623199
v 2.447929 1.100000 -1.623199
v 4.355799 1.100000 -0.410546
v 4.355799 0.900000 -0.410546
v -3.673648 0.900000 -2.058358
v -3.673648 1.100000 -2.058358
v -3.665494 1.100000 -0.800000
v 3.205263 1.100000 0.000000
v 2.488991 1.100000 -1.130779
v 1.020014 1.100000 -1.901100
v -3.584408 1.100000 -1.860566
v 3.137690 1.100000 -0.306391
v 2.537689 0.900000 -0.306391
v 1.888991 0.900000 -1.130779
v 0.956486 0.900000 -1.833537
v -3.584408 0.900000 -1.860566
v 2.605263 0.900000 0.000000
v -3.665494 0.900000 -0.800000
v -3.700000 0.400000 -0.600000
v -3.900000 0.897942 0.000000
v -3.665494 0.400000 -0.600000
v -3.700000 0.400000 0.000000
v -3.900000 1.100000 0.000000
v -3.665494 1.100000 0.000000
v -3.665494 0.400000 0.000000
vn -0.995976 0.000000 0.089615
vn 1.000000 -0.000000 0.000000
vn -0.638351 -0.000000 0.769745
vn -0.000000 -1.000000 0.000001
vn 0.273913 0.000000 0.961754
vn 0.310661 0.000000 0.950521
vn 0.451792 0.000000 0.892123
vn 0.605443 0.000000 0.795889
vn 0.006169 0.000000 0.999981
vn -0.000000 1.000000 0.000000
vn -0.306870 0.920610 -0.241471
vn -0.424031 0.407853 -0.808613
vn 0.001456 0.166324 -0.986070
vn 0.997090 0.000000 -0.076233
vn -0.315461 0.946385 -0.069574
vn -0.291597 0.874791 -0.386927
vn -0.000000 -0.371391 0.928477
vn -1.000000 0.000000 0.000000
vn -0.000002 -1.000000 0.000000
vn -0.928174 -0.372145 0.000547
vn -0.995976 0.000000 -0.089615
vn -0.638351 -0.000000 -0.769745
vn 0.000000 -1.000000 -0.000001
vn 0.273913 0.000000 -0.961754
vn 0.310661 0.000000 -0.950521
vn 0.451792 0.000000 -0.892123
vn 0.605443 0.000000 -0.795889
vn 0.006169 0.000000 -0.999981
vn -0.306870 0.920610 0.241471
vn -0.424030 0.407853 0.808613
vn 0.001456 0.166324 0.986070
vn 0.997090 0.000000 0.076233
vn -0.315461 0.946385 0.069574
vn -0.291597 0.874791 0.386927
vn -0.000000 -0.371391 -0.928477
vn -0.928174 -0.372145 -0.000547
s off
f 14//2 13//2 16//2
f 14//2 16//2 17//2
f 47//3 20//3 19//3
f 47//3 19//3 43//3
f 13//4 27//4 28//4
f 13//4 28//4 16//4
f 34//1 69//1 43//1
f 34//1 43//1 19//1
f 34//1 19//1 26//1
f 35//1 34//1 26//1
f 35//1 26//1 21//1
f 38//1 13//1 14//1
f 37//1 13//1 38//1
f 36//1 35//1 21//1
f 36//1 21//1 23//1
f 36//1 23//1 15//1
f 37//1 36//1 15//1
f 15//5 13//5 37//5
f 27//1 13//1 15//1
f 24//6 18//6 15//6
f 24//6 15//6 23//6
f 20//7 25//7 26//7
f 20//7 26//7 19//7
f 22//8 24//8 23//8
f 22//8 23//8 21//8
f 25//9 22//9 21//9
f 25//9 21//9 26//9
f 18//10 28//10 27//10
f 18//10 27//10 15//10
f 47//11 60//11 33//11
f 20//11 47//11 33//11
f 25//11 20//11 33//11
f 25//11 33//11 30//11
f 22//11 25//11 30//11
f 16//11 29//11 17//11
f 16//11 32//11 29//11
f 22//11 30//11 31//11
f 24//11 22//11 31//11
f 18//11 24//11 31//11
f 16//11 31//11 32//11
f 16//11 18//11 31//11
f 16//11 28//11 18//11
f 30//12 33//12 34//12
f 30//12 34//12 35//12
f 36//13 31//13 30//13
f 32//14 31//14 36//14
f 32//14 36//14 37//14
f 38//15 29//15 32//15
f 38//15 32//15 37//15
f 34//16 33//16 60//16
f 34//16 60//16 69//16
f 30//17 35//17 36//17
f 38//18 14//18 39//18
f 38//18 39//18 40//18
f 14//19 17//19 75//19
f 14//19 75//19 72//19
f 17//11 29//11 76//11
f 17//11 76//11 75//11
f 29//3 38//3 76//3
f 38//3 77//3 76//3
f 38//3 40//3 77//3
f 40//20 39//20 74//20
f 40//20 74//20 77//20
f 39//21 14//21 72//21
f 39//21 72//21 74//21
f 45//22 41//22 42//22
f 45//22 42//22 46//22
f 47//3 43//3 49//3
f 47//3 49//3 50//3
f 58//23 57//23 41//23
f 58//23 41//23 45//23
f 41//1 57//1 44//1
f 41//1 44//1 67//1
f 44//1 53//1 67//1
f 42//1 41//1 68//1
f 41//24 67//24 68//24
f 42//1 68//1 70//1
f 53//1 66//1 67//1
f 53//1 51//1 66//1
f 51//1 56//1 66//1
f 56//1 65//1 66//1
f 56//1 49//1 65//1
f 49//1 69//1 65//1
f 49//1 43//1 69//1
f 54//25 53//25 44//25
f 54//25 44//25 48//25
f 50//26 49//26 56//26
f 50//26 56//26 55//26
f 52//27 51//27 53//27
f 52//27 53//27 54//27
f 55//28 56//28 51//28
f 55//28 51//28 52//28
f 48//29 44//29 57//29
f 48//29 57//29 58//29
f 45//11 48//11 58//11
f 45//11 62//11 48//11
f 62//11 54//11 48//11
f 45//11 46//11 63//11
f 45//11 63//11 62//11
f 62//11 61//11 54//11
f 46//11 59//11 63//11
f 61//11 52//11 54//11
f 61//11 55//11 52//11
f 61//11 64//11 55//11
f 64//11 50//11 55//11
f 64//11 60//11 50//11
f 60//11 47//11 50//11
f 61//30 66//30 65//30
f 61//30 65//30 64//30
f 67//31 61//31 62//31
f 63//32 68//32 67//32
f 63//32 67//32 62//32
f 70//33 68//33 63//33
f 70//33 63//33 59//33
f 65//34 69//34 60//34
f 65//34 60//34 64//34
f 61//35 67//35 66//35
f 70//36 73//36 71//36
f 70//36 71//36 42//36
f 42//19 72//19 75//19
f 42//19 75//19 46//19
f 46//11 75//11 76//11
f 46//11 76//11 59//11
f 59//3 76//3 77//3
f 59//3 77//3 70//3
f 77//3 73//3 70//3
f 73//20 77//20 74//20
f 73//20 74//20 71//20
f 71//37 74//37 72//37
f 71//37 72//37 42//37
o Hull_hull
v -3.601048 -0.215897 0.200000
v 1.804533 -0.426552 0.200000
v 3.109421 -0.251615 0.200000
v 4.585268 1.000000 0.200000
v 3.957057 0.262557 0.200000
v -3.601048 -0.115897 1.000000
v 0.804533 -0.326552 1.000000
v 2.109421 -0.151615 1.000000
v 3.585268 1.000000 1.000000
v 2.957057 0.362557 1.000000
v -3.601048 0.184103 1.600000
v -1.295467 -0.026552 1.500000
v 1.409421 0.097193 1.390239
v 2.385268 1.000000 1.600000
v 2.417864 0.543033 1.471816
v -3.601048 0.784103 2.000000
v -1.695467 0.573448 1.900000
v 0.409421 0.326478 1.670715
v 1.085268 1.000000 2.000000
v 0.867046 0.589651 1.806173
v -3.773540 1.000000 2.000000
v -3.760369 1.000000 1.600000
v -3.601048 -0.215897 0.000000
v -3.601048 -0.215897 -0.200000
v 1.804533 -0.426552 -0.200000
v 1.804533 -0.426552 0.000000
v 3.109421 -0.251615 -0.200000
v 3.109421 -0.251615 0.000000
v 4.585268 1.000000 0.000000
v 4.585268 1.000000 -0.200000
v 3.957057 0.262557 0.000000
v 3.957057 0.262557 -0.200000
v -3.601048 -0.115897 -1.000000
v 0.804533 -0.326552 -1.000000
v 2.109421 -0.151615 -1.000000
v 3.585268 1.000000 -1.000000
v 2.957057 0.362557 -1.000000
v -3.601048 0.184103 -1.600000
v -1.295467 -0.026552 -1.500000
v 1.409421 0.097193 -1.390239
v 2.385268 1.000000 -1.600000
v 2.417864 0.543033 -1.471816
v -3.601048 0.784103 -2.000000
v -1.695467 0.573448 -1.900000
v 0.409421 0.326478 -1.670715
v 1.085268 1.000000 -2.000000
v 0.867046 0.589651 -1.806173
v -3.773540 1.000000 -2.000000
v -3.772873 1.000000 0.000000
v -3.760369 1.000000 -1.600000
vn -0.357646 0.893521 -0.271371
vn -0.332774 0.942991 0.000000
vn -0.047121 0.998871 0.000000
vn -0.069216 0.990539 -0.118351
vn 0.669454 0.742821 0.000000
vn 0.656850 0.752495 -0.047761
vn -0.620136 0.697653 -0.358684
vn -0.648183 0.761437 0.000000
vn -0.720481 0.625477 -0.299417
vn -0.761223 0.648457 0.000000
vn -0.226173 0.805170 -0.548173
vn -0.026765 0.916471 -0.399152
vn -0.124943 0.619617 -0.774865
vn -0.516129 0.483139 -0.707205
vn -0.452803 0.582659 -0.674856
vn 0.636769 0.742180 -0.208930
vn 0.012055 0.770012 -0.637898
vn 0.583636 0.620655 -0.523515
vn 0.234962 0.337870 -0.911374
vn -0.341655 0.441847 -0.829463
vn -0.354320 0.229041 -0.906613
vn 0.984588 0.174688 -0.002197
vn 0.724052 0.249825 -0.642872
vn -0.131321 0.439802 -0.888424
vn -0.060579 0.581408 -0.811335
vn -0.104678 0.538194 -0.836268
vn -0.005860 0.447432 -0.894284
vn 0.989807 0.142247 0.000000
vn -0.357646 0.893521 0.271371
vn -0.069216 0.990539 0.118351
vn 0.656850 0.752495 0.047761
vn -0.620136 0.697653 0.358684
vn -0.720481 0.625477 0.299417
vn -0.226173 0.805170 0.548173
vn -0.124943 0.619617 0.774865
vn -0.026765 0.916471 0.399152
vn -0.516129 0.483139 0.707205
vn -0.452803 0.582659 0.674856
vn 0.636769 0.742180 0.208930
vn 0.012055 0.770012 0.637898
vn 0.234962 0.337870 0.911374
vn 0.583636 0.620655 0.523515
vn -0.341655 0.441847 0.829463
vn -0.354320 0.229041 0.906613
vn 0.984588 0.174688 0.002197
vn 0.724052 0.249825 0.642872
vn -0.131321 0.439802 0.888424
vn -0.060579 0.581408 0.811335
vn -0.104678 0.538194 0.836268
vn -0.005860 0.447432 0.894284
s 1
f 80//38 105//39 103//40
f 80//38 103//40 79//41
f 100//42 78//43 79//41
f 100//42 79//41 103//40
f 82//44 108//45 105//39
f 82//44 105//39 80//38
f 81//46 106//47 108//45
f 81//46 108//45 82//44
f 85//48 84//49 90//50
f 86//51 81//46 87//52
f 80//38 79//41 84//49
f 80//38 84//49 85//48
f 87//52 82//44 85//48
f 84//49 79//41 83//53
f 89//54 88//55 93//56
f 87//52 85//48 92//57
f 91//58 86//51 92//57
f 83//53 99//59 88//55
f 84//49 83//53 89//54
f 98//60 96//61 93//56
f 90//50 89//54 95//62
f 97//63 92//57 95//62
f 92//57 97//63 96//61
f 88//55 99//59 98//60
f 91//58 92//57 96//61
f 92//57 90//50 95//62
f 86//51 87//52 92//57
f 97//63 95//62 94//64
f 96//61 97//63 94//64
f 85//48 90//50 92//57
f 89//54 94//64 95//62
f 84//49 89//54 90//50
f 94//64 89//54 93//56
f 83//53 88//55 89//54
f 93//56 88//55 98//60
f 96//61 94//64 93//56
f 79//41 78//43 83//53
f 81//46 82//44 87//52
f 82//44 80//38 85//48
f 126//65 99//59 100//42
f 99//59 83//53 100//42
f 83//53 78//43 100//42
f 104//66 102//67 103//40
f 104//66 103//40 105//39
f 100//42 103//40 102//67
f 100//42 102//67 101//68
f 109//69 104//66 105//39
f 109//69 105//39 108//45
f 107//70 109//69 108//45
f 107//70 108//45 106//47
f 112//71 117//72 111//73
f 113//74 114//75 107//70
f 104//66 112//71 111//73
f 104//66 111//73 102//67
f 114//75 112//71 109//69
f 111//73 110//76 102//67
f 116//77 120//78 115//79
f 114//75 119//80 112//71
f 118//81 119//80 113//74
f 110//76 115//79 127//82
f 111//73 116//77 110//76
f 125//83 120//78 123//84
f 117//72 122//85 116//77
f 124//86 122//85 119//80
f 119//80 123//84 124//86
f 115//79 125//83 127//82
f 118//81 123//84 119//80
f 119//80 122//85 117//72
f 113//74 119//80 114//75
f 124//86 121//87 122//85
f 123//84 121//87 124//86
f 112//71 119//80 117//72
f 116//77 122//85 121//87
f 111//73 117//72 116//77
f 121//87 120//78 116//77
f 110//76 116//77 115//79
f 120//78 125//83 115//79
f 123//84 120//78 121//87
f 102//67 110//76 101//68
f 107//70 114//75 109//69
f 109//69 112//71 104//66
f 126//65 110//76 127//82
f 126//65 100//42 110//76
f 100//42 101//68 110//76
