# Blender v2.65 (sub 0) OBJ File: 'boat.blend'
# www.blender.org
o Hull_Cube.002
v -3.601048 -0.215897 0.200000
v 1.804533 -0.426552 0.200000
v 3.109421 -0.251615 0.200000
v 4.585268 0.911760 0.200000
v 3.957057 0.262557 0.200000
v -3.601048 -0.115897 1.000000
v 0.804533 -0.326552 1.000000
v 2.109421 -0.151615 1.000000
v 3.585268 0.911760 1.000000
v 2.957057 0.362557 1.000000
v -3.601048 0.184103 1.600000
v -1.295467 -0.026552 1.500000
v 1.409421 0.097193 1.390239
v 2.385268 0.911760 1.600000
v 2.417864 0.543033 1.471816
v -3.601048 0.784103 2.000000
v -1.695467 0.573448 1.900000
v 0.409421 0.326478 1.670715
v 1.085268 0.911760 2.000000
v 0.867046 0.589651 1.806173
v -3.773540 0.838289 2.000000
v -3.760369 0.837474 1.600000
v -3.601048 -0.215897 0.000000
v -3.601048 -0.215897 -0.200000
v 1.804533 -0.426552 -0.200000
v 1.804533 -0.426552 0.000000
v 3.109421 -0.251615 -0.200000
v 3.109421 -0.251615 0.000000
v 4.585268 0.911760 0.000000
v 4.585268 0.911760 -0.200000
v 3.957057 0.262557 0.000000
v 3.957057 0.262557 -0.200000
v -3.601048 -0.115897 -1.000000
v 0.804533 -0.326552 -1.000000
v 2.109421 -0.151615 -1.000000
v 3.585268 0.911760 -1.000000
v 2.957057 0.362557 -1.000000
v -3.601048 0.184103 -1.600000
v -1.295467 -0.026552 -1.500000
v 1.409421 0.097193 -1.390239
v 2.385268 0.911760 -1.600000
v 2.417864 0.543033 -1.471816
v -3.601048 0.784103 -2.000000
v -1.695467 0.573448 -1.900000
v 0.409421 0.326478 -1.670715
v 1.085268 0.911760 -2.000000
v 0.867046 0.589651 -1.806173
v -3.773540 0.838289 -2.000000
v -3.772873 0.834216 0.000000
v -3.760369 0.837474 -1.600000
vn -0.357646 0.893521 -0.271371
vn -0.332774 0.942991 0.000000
vn -0.047121 0.998871 0.000000
vn -0.069216 0.990539 -0.118351
vn 0.660787 0.750542 0.000000
vn 0.648366 0.759789 -0.047975
vn -0.597003 0.720328 -0.353099
vn -0.623737 0.781610 0.000000
vn -0.682669 0.674184 -0.281808
vn -0.718619 0.695364 0.000000
vn -0.226173 0.805170 -0.548173
vn -0.026765 0.916471 -0.399152
vn -0.124943 0.619617 -0.774865
vn -0.495071 0.543596 -0.677755
vn -0.439253 0.603778 -0.665151
vn 0.627491 0.750114 -0.208747
vn 0.012055 0.770012 -0.637898
vn 0.561480 0.638295 -0.526566
vn 0.056063 0.311624 -0.948515
vn -0.336161 0.465438 -0.818751
vn -0.347789 0.280251 -0.894681
vn 0.976806 0.213904 -0.008728
vn 0.632130 0.448683 -0.631672
vn -0.123814 0.536546 -0.834712
vn -0.060579 0.581408 -0.811335
vn -0.099643 0.582842 -0.806452
vn -0.003418 0.465499 -0.885006
vn 0.986267 0.165105 0.000000
vn -0.357646 0.893521 0.271371
vn -0.069216 0.990539 0.118351
vn 0.648366 0.759789 0.047975
vn -0.597003 0.720328 0.353099
vn -0.682669 0.674184 0.281808
vn -0.226173 0.805170 0.548173
vn -0.124943 0.619617 0.774865
vn -0.026765 0.916471 0.399152
vn -0.495071 0.543596 0.677755
vn -0.439253 0.603778 0.665151
vn 0.627491 0.750114 0.208747
vn 0.012055 0.770012 0.637898
vn 0.056063 0.311624 0.948515
vn 0.561480 0.638295 0.526566
vn -0.336161 0.465438 0.818751
vn -0.347789 0.280251 0.894681
vn 0.976806 0.213904 0.008728
vn 0.632130 0.448683 0.631672
vn -0.123814 0.536546 0.834712
vn -0.060579 0.581408 0.811335
vn -0.099643 0.582842 0.806452
vn -0.003418 0.465499 0.885006
s 1
f 3//1 28//2 26//3
f 3//1 26//3 2//4
f 23//5 1//6 2//4
f 23//5 2//4 26//3
f 5//7 31//8 28//2
f 5//7 28//2 3//1
f 4//9 29//10 31//8
f 4//9 31//8 5//7
f 8//11 7//12 13//13
f 9//14 4//9 10//15
f 3//1 2//4 7//12
f 3//1 7//12 8//11
f 10//15 5//7 8//11
f 7//12 2//4 6//16
f 12//17 11//18 16//19
f 10//15 8//11 15//20
f 14//21 9//14 15//20
f 6//16 22//22 11//18
f 7//12 6//16 12//17
f 21//23 19//24 16//19
f 13//13 12//17 18//25
f 20//26 15//20 18//25
f 15//20 20//26 19//24
f 11//18 22//22 21//23
f 14//21 15//20 19//24
f 15//20 13//13 18//25
f 9//14 10//15 15//20
f 20//26 18//25 17//27
f 19//24 20//26 17//27
f 8//11 13//13 15//20
f 12//17 17//27 18//25
f 7//12 12//17 13//13
f 17//27 12//17 16//19
f 6//16 11//18 12//17
f 16//19 11//18 21//23
f 19//24 17//27 16//19
f 2//4 1//6 6//16
f 4//9 5//7 10//15
f 5//7 3//1 8//11
f 49//28 22//22 6//16
f 49//28 6//16 23//5
f 6//16 1//6 23//5
f 27//29 25//30 26//3
f 27//29 26//3 28//2
f 23//5 26//3 25//30
f 23//5 25//30 24//31
f 32//32 27//29 28//2
f 32//32 28//2 31//8
f 30//33 32//32 31//8
f 30//33 31//8 29//10
f 35//34 40//35 34//36
f 36//37 37//38 30//33
f 27//29 35//34 34//36
f 27//29 34//36 25//30
f 37//38 35//34 32//32
f 34//36 33//39 25//30
f 39//40 43//41 38//42
f 37//38 42//43 35//34
f 41//44 42//43 36//37
f 33//39 38//42 50//45
f 34//36 39//40 33//39
f 48//46 43//41 46//47
f 40//35 45//48 39//40
f 47//49 45//48 42//43
f 42//43 46//47 47//49
f 38//42 48//46 50//45
f 41//44 46//47 42//43
f 42//43 45//48 40//35
f 36//37 42//43 37//38
f 47//49 44//50 45//48
f 46//47 44//50 47//49
f 35//34 42//43 40//35
f 39//40 45//48 44//50
f 34//36 40//35 39//40
f 44//50 43//41 39//40
f 33//39 39//40 38//42
f 43//41 48//46 38//42
f 46//47 43//41 44//50
f 25//30 33//39 24//31
f 30//33 37//38 32//32
f 32//32 35//34 27//29
f 49//28 33//39 50//45
f 49//28 23//5 33//39
f 23//5 24//31 33//39
