# Blender v2.65 (sub 0) OBJ File: 'boat.blend'
# www.blender.org
o OuterHull_outerhull
v -3.601048 -0.215897 0.200000
v 1.804533 -0.426552 0.200000
v 3.109421 -0.251615 0.200000
v 4.585268 1.000000 0.200000
v 3.957057 0.262557 0.200000
v -3.601048 -0.115897 1.000000
v 0.804533 -0.326552 1.000000
v 2.109421 -0.151615 1.000000
v 3.585268 1.000000 1.000000
v 2.957057 0.362557 1.000000
v -3.601048 0.184103 1.600000
v -1.295467 -0.026552 1.500000
v 1.409421 0.097193 1.390239
v 2.385268 1.000000 1.600000
v 2.417864 0.543033 1.471816
v -3.601048 0.784103 2.000000
v -1.695467 0.573448 1.900000
v 0.409421 0.326478 1.670715
v 1.085268 1.000000 2.000000
v 0.867046 0.589651 1.806173
v -3.773540 1.000000 2.000000
v -3.760369 1.000000 1.600000
v -5.500463 1.899913 2.940744
v -3.601048 -0.215897 0.000000
v -3.601048 -0.215897 -0.200000
v 1.804533 -0.426552 -0.200000
v 1.804533 -0.426552 0.000000
v 3.109421 -0.251615 -0.200000
v 3.109421 -0.251615 0.000000
v 4.585268 1.000000 0.000000
v 4.585268 1.000000 -0.200000
v 3.957057 0.262557 0.000000
v 3.957057 0.262557 -0.200000
v -3.601048 -0.115897 -1.000000
v 0.804533 -0.326552 -1.000000
v 2.109421 -0.151615 -1.000000
v 3.585268 1.000000 -1.000000
v 2.957057 0.362557 -1.000000
v -3.601048 0.184103 -1.600000
v -1.295467 -0.026552 -1.500000
v 1.409421 0.097193 -1.390239
v 2.385268 1.000000 -1.600000
v 2.417864 0.543033 -1.471816
v -3.601048 0.784103 -2.000000
v -1.695467 0.573448 -1.900000
v 0.409421 0.326478 -1.670715
v 1.085268 1.000000 -2.000000
v 0.867046 0.589651 -1.806173
v -3.773540 1.000000 -2.000000
v -3.772873 1.000000 0.000000
v -3.760369 1.000000 -1.600000
v -3.772873 1.000000 0.000000
v -5.500463 1.899913 -2.940744
vn 0.357646 -0.893521 0.271371
vn 0.069216 -0.990539 0.118351
vn 0.047121 -0.998871 0.000000
vn 0.332774 -0.942991 0.000000
vn -0.656850 -0.752495 0.047761
vn -0.669454 -0.742821 0.000000
vn 0.620136 -0.697653 0.358684
vn 0.648183 -0.761437 0.000000
vn 0.720481 -0.625477 0.299417
vn 0.761223 -0.648457 0.000000
vn 0.226173 -0.805170 0.548173
vn 0.124943 -0.619617 0.774865
vn 0.026765 -0.916471 0.399152
vn 0.516129 -0.483139 0.707205
vn 0.452803 -0.582659 0.674856
vn -0.636769 -0.742180 0.208930
vn -0.012055 -0.770012 0.637898
vn -0.234962 -0.337870 0.911374
vn -0.583636 -0.620655 0.523515
vn 0.341655 -0.441847 0.829463
vn 0.354320 -0.229041 0.906613
vn -0.984588 -0.174688 0.002197
vn -0.724052 -0.249825 0.642872
vn 0.131321 -0.439802 0.888424
vn 0.060579 -0.581408 0.811335
vn 0.104678 -0.538194 0.836268
vn 0.005860 -0.447432 0.894284
vn -0.989807 -0.142247 0.000000
vn 0.357646 -0.893521 -0.271371
vn 0.069216 -0.990539 -0.118351
vn -0.656850 -0.752495 -0.047761
vn 0.620136 -0.697653 -0.358684
vn 0.720481 -0.625477 -0.299417
vn 0.226173 -0.805170 -0.548173
vn 0.026765 -0.916471 -0.399152
vn 0.124943 -0.619617 -0.774865
vn 0.516129 -0.483139 -0.707205
vn 0.452803 -0.582659 -0.674856
vn -0.636769 -0.742180 -0.208930
vn -0.012055 -0.770012 -0.637898
vn -0.583636 -0.620655 -0.523515
vn -0.234962 -0.337870 -0.911374
vn 0.341655 -0.441847 -0.829463
vn 0.354320 -0.229041 -0.906613
vn -0.984588 -0.174688 -0.002197
vn -0.724052 -0.249825 -0.642872
vn 0.131321 -0.439802 -0.888424
vn 0.060579 -0.581408 -0.811335
vn 0.104678 -0.538194 -0.836268
vn 0.005860 -0.447432 -0.894284
s 1
f 3//1 2//2 27//3
f 3//1 27//3 29//4
f 2//2 1//5 24//6
f 2//2 24//6 27//3
f 5//7 3//1 29//4
f 5//7 29//4 32//8
f 4//9 5//7 32//8
f 4//9 32//8 30//10
f 8//11 13//12 7//13
f 9//14 10//15 4//9
f 3//1 8//11 7//13
f 3//1 7//13 2//2
f 10//15 8//11 5//7
f 7//13 6//16 2//2
f 12//17 16//18 11//19
f 10//15 15//20 8//11
f 14//21 15//20 9//14
f 6//16 11//19 22//22
f 7//13 12//17 6//16
f 21//23 16//18 19//24
f 13//12 18//25 12//17
f 20//26 18//25 15//20
f 15//20 19//24 20//26
f 11//19 21//23 22//22
f 14//21 19//24 15//20
f 15//20 18//25 13//12
f 9//14 15//20 10//15
f 20//26 17//27 18//25
f 19//24 17//27 20//26
f 8//11 15//20 13//12
f 12//17 18//25 17//27
f 7//13 13//12 12//17
f 17//27 16//18 12//17
f 6//16 12//17 11//19
f 16//18 21//23 11//19
f 19//24 16//18 17//27
f 6//16 1//5 2//2
f 4//9 10//15 5//7
f 5//7 8//11 3//1
f 50//28 24//6 22//22
f 24//6 6//16 22//22
f 24//6 1//5 6//16
f 28//29 29//4 27//3
f 28//29 27//3 26//30
f 24//6 25//31 26//30
f 24//6 26//30 27//3
f 33//32 32//8 29//4
f 33//32 29//4 28//29
f 31//33 30//10 32//8
f 31//33 32//8 33//32
f 36//34 35//35 41//36
f 37//37 31//33 38//38
f 28//29 26//30 35//35
f 28//29 35//35 36//34
f 38//38 33//32 36//34
f 35//35 26//30 34//39
f 40//40 39//41 44//42
f 38//38 36//34 43//43
f 42//44 37//37 43//43
f 34//39 51//45 39//41
f 35//35 34//39 40//40
f 49//46 47//47 44//42
f 41//36 40//40 46//48
f 48//49 43//43 46//48
f 43//43 48//49 47//47
f 39//41 51//45 49//46
f 42//44 43//43 47//47
f 43//43 41//36 46//48
f 37//37 38//38 43//43
f 48//49 46//48 45//50
f 47//47 48//49 45//50
f 36//34 41//36 43//43
f 40//40 45//50 46//48
f 35//35 40//40 41//36
f 45//50 40//40 44//42
f 34//39 39//41 40//40
f 44//42 39//41 49//46
f 47//47 45//50 44//42
f 26//30 25//31 34//39
f 31//33 33//32 38//38
f 33//32 28//29 36//34
f 50//28 51//45 34//39
f 50//28 34//39 24//6
f 34//39 25//31 24//6
o Waterclip_waterclip
v 3.137690 1.100000 0.306391
v -3.584408 1.100000 1.860566
v 1.020014 1.100000 1.901100
v 2.488991 1.100000 1.130779
v -3.665494 1.100000 0.800000
v -3.665494 1.100000 0.000000
v 3.137690 1.100000 -0.306391
v -3.584408 1.100000 -1.860566
v 1.020014 1.100000 -1.901100
v 2.488991 1.100000 -1.130779
v 3.205263 1.100000 0.000000
v -3.665494 1.100000 -0.800000
vn 0.000000 -1.000000 0.000000
s off
f 58//51 59//51 64//51
f 64//51 54//51 58//51
f 58//51 54//51 57//51
f 55//51 58//51 57//51
f 55//51 57//51 56//51
f 61//51 62//51 63//51
f 61//51 63//51 65//51
f 63//51 60//51 65//51
f 60//51 59//51 65//51
f 60//51 64//51 59//51
o InnerHull_innerhull
v -3.601048 -0.215897 0.200000
v 1.804533 -0.426552 0.200000
v 3.109421 -0.251615 0.200000
v 4.585268 1.000000 0.200000
v 3.957057 0.262557 0.200000
v -3.601048 -0.115897 1.000000
v 0.804533 -0.326552 1.000000
v 2.109421 -0.151615 1.000000
v 3.585268 1.000000 1.000000
v 2.957057 0.362557 1.000000
v -3.601048 0.184103 1.600000
v -1.295467 -0.026552 1.500000
v 1.409421 0.097193 1.390239
v 2.385268 1.000000 1.600000
v 2.417864 0.543033 1.471816
v -3.601048 0.784103 2.000000
v -1.695467 0.573448 1.900000
v 0.409421 0.326478 1.670715
v 1.085268 1.000000 2.000000
v 0.867046 0.589651 1.806173
v -3.773540 1.000000 2.000000
v -3.760369 1.000000 1.600000
v -5.500463 1.899913 2.940744
v -3.601048 -0.215897 0.000000
v -3.601048 -0.215897 -0.200000
v 1.804533 -0.426552 -0.200000
v 1.804533 -0.426552 0.000000
v 3.109421 -0.251615 -0.200000
v 3.109421 -0.251615 0.000000
v 4.585268 1.000000 0.000000
v 4.585268 1.000000 -0.200000
v 3.957057 0.262557 0.000000
v 3.957057 0.262557 -0.200000
v -3.601048 -0.115897 -1.000000
v 0.804533 -0.326552 -1.000000
v 2.109421 -0.151615 -1.000000
v 3.585268 1.000000 -1.000000
v 2.957057 0.362557 -1.000000
v -3.601048 0.184103 -1.600000
v -1.295467 -0.026552 -1.500000
v 1.409421 0.097193 -1.390239
v 2.385268 1.000000 -1.600000
v 2.417864 0.543033 -1.471816
v -3.601048 0.784103 -2.000000
v -1.695467 0.573448 -1.900000
v 0.409421 0.326478 -1.670715
v 1.085268 1.000000 -2.000000
v 0.867046 0.589651 -1.806173
v -3.773540 1.000000 -2.000000
v -3.772873 1.000000 0.000000
v -3.760369 1.000000 -1.600000
v -3.772873 1.000000 0.000000
v -5.500463 1.899913 -2.940744
vn -0.357646 0.893521 -0.271371
vn -0.332774 0.942991 0.000000
vn -0.047121 0.998871 0.000000
vn -0.069216 0.990539 -0.118351
vn 0.669454 0.742821 0.000000
vn 0.656850 0.752495 -0.047761
vn -0.620136 0.697653 -0.358684
vn -0.648183 0.761437 0.000000
vn -0.720481 0.625477 -0.299417
vn -0.761223 0.648457 0.000000
vn -0.226173 0.805170 -0.548173
vn -0.026765 0.916471 -0.399152
vn -0.124943 0.619617 -0.774865
vn -0.516129 0.483139 -0.707205
vn -0.452803 0.582659 -0.674856
vn 0.636769 0.742180 -0.208930
vn 0.012055 0.770012 -0.637898
vn 0.583636 0.620655 -0.523515
vn 0.234962 0.337870 -0.911374
vn -0.341655 0.441847 -0.829463
vn -0.354320 0.229041 -0.906613
vn 0.984588 0.174688 -0.002197
vn 0.724052 0.249825 -0.642872
vn -0.131321 0.439802 -0.888424
vn -0.060579 0.581408 -0.811335
vn -0.104678 0.538194 -0.836268
vn -0.005860 0.447432 -0.894284
vn 0.989807 0.142247 0.000000
vn -0.357646 0.893521 0.271371
vn -0.069216 0.990539 0.118351
vn 0.656850 0.752495 0.047761
vn -0.620136 0.697653 0.358684
vn -0.720481 0.625477 0.299417
vn -0.226173 0.805170 0.548173
vn -0.124943 0.619617 0.774865
vn -0.026765 0.916471 0.399152
vn -0.516129 0.483139 0.707205
vn -0.452803 0.582659 0.674856
vn 0.636769 0.742180 0.208930
vn 0.012055 0.770012 0.637898
vn 0.234962 0.337870 0.911374
vn 0.583636 0.620655 0.523515
vn -0.341655 0.441847 0.829463
vn -0.354320 0.229041 0.906613
vn 0.984588 0.174688 0.002197
vn 0.724052 0.249825 0.642872
vn -0.131321 0.439802 0.888424
vn -0.060579 0.581408 0.811335
vn -0.104678 0.538194 0.836268
vn -0.005860 0.447432 0.894284
s 1
f 68//52 94//53 92//54
f 68//52 92//54 67//55
f 89//56 66//57 67//55
f 89//56 67//55 92//54
f 70//58 97//59 94//53
f 70//58 94//53 68//52
f 69//60 95//61 97//59
f 69//60 97//59 70//58
f 73//62 72//63 78//64
f 74//65 69//60 75//66
f 68//52 67//55 72//63
f 68//52 72//63 73//62
f 75//66 70//58 73//62
f 72//63 67//55 71//67
f 77//68 76//69 81//70
f 75//66 73//62 80//71
f 79//72 74//65 80//71
f 71//67 87//73 76//69
f 72//63 71//67 77//68
f 86//74 84//75 81//70
f 78//64 77//68 83//76
f 85//77 80//71 83//76
f 80//71 85//77 84//75
f 76//69 87//73 86//74
f 79//72 80//71 84//75
f 80//71 78//64 83//76
f 74//65 75//66 80//71
f 85//77 83//76 82//78
f 84//75 85//77 82//78
f 73//62 78//64 80//71
f 77//68 82//78 83//76
f 72//63 77//68 78//64
f 82//78 77//68 81//70
f 71//67 76//69 77//68
f 81//70 76//69 86//74
f 84//75 82//78 81//70
f 67//55 66//57 71//67
f 69//60 70//58 75//66
f 70//58 68//52 73//62
f 115//79 87//73 89//56
f 87//73 71//67 89//56
f 71//67 66//57 89//56
f 93//80 91//81 92//54
f 93//80 92//54 94//53
f 89//56 92//54 91//81
f 89//56 91//81 90//82
f 98//83 93//80 94//53
f 98//83 94//53 97//59
f 96//84 98//83 97//59
f 96//84 97//59 95//61
f 101//85 106//86 100//87
f 102//88 103//89 96//84
f 93//80 101//85 100//87
f 93//80 100//87 91//81
f 103//89 101//85 98//83
f 100//87 99//90 91//81
f 105//91 109//92 104//93
f 103//89 108//94 101//85
f 107//95 108//94 102//88
f 99//90 104//93 116//96
f 100//87 105//91 99//90
f 114//97 109//92 112//98
f 106//86 111//99 105//91
f 113//100 111//99 108//94
f 108//94 112//98 113//100
f 104//93 114//97 116//96
f 107//95 112//98 108//94
f 108//94 111//99 106//86
f 102//88 108//94 103//89
f 113//100 110//101 111//99
f 112//98 110//101 113//100
f 101//85 108//94 106//86
f 105//91 111//99 110//101
f 100//87 106//86 105//91
f 110//101 109//92 105//91
f 99//90 105//91 104//93
f 109//92 114//97 104//93
f 112//98 109//92 110//101
f 91//81 99//90 90//82
f 96//84 103//89 98//83
f 98//83 101//85 93//80
f 115//79 99//90 116//96
f 115//79 89//56 99//90
f 89//56 90//82 99//90
o Trim_trim
v -3.815791 0.900000 1.960954
v -3.900000 0.900000 0.800000
v 1.021726 0.900000 2.029390
v -3.815791 1.100000 1.960954
v -3.900000 1.100000 0.800000
v 1.021726 1.100000 2.029390
v 5.000000 0.900000 0.200000
v 5.000000 1.100000 0.200000
v 3.386580 0.900000 1.147843
v 3.386580 1.100000 1.147843
v 2.447929 0.900000 1.623199
v 2.447929 1.100000 1.623199
v 4.355799 1.100000 0.410546
v 4.355799 0.900000 0.410546
v -3.749239 0.900000 2.038465
v -3.749239 1.100000 2.038465
v -3.665494 1.100000 0.800000
v 2.488991 1.100000 1.130779
v 1.020014 1.100000 1.901100
v -3.584408 1.100000 1.860566
v 3.137690 1.100000 0.306391
v 2.537689 0.900000 0.306391
v 1.888991 0.900000 1.130779
v 0.956486 0.900000 1.833537
v -3.584408 0.900000 1.860566
v -3.665494 0.900000 0.800000
v -3.700000 0.400000 0.600000
v -3.665494 0.400000 0.600000
v -3.815791 0.900000 -1.960954
v -3.900000 0.900000 -0.800000
v 5.000000 0.900000 0.000000
v 1.021726 0.900000 -2.029390
v -3.815791 1.100000 -1.960954
v -3.900000 1.100000 -0.800000
v 5.000000 1.100000 0.000000
v 1.021726 1.100000 -2.029390
v 5.000000 0.900000 -0.200000
v 5.000000 1.100000 -0.200000
v 3.386580 0.900000 -1.147843
v 3.386580 1.100000 -1.147843
v 2.447929 0.900000 -1.623199
v 2.447929 1.100000 -1.623199
v 4.355799 1.100000 -0.410546
v 4.355799 0.900000 -0.410546
v -3.749239 0.900000 -2.038465
v -3.749239 1.100000 -2.038465
v -3.665494 1.100000 -0.800000
v 3.205263 1.100000 0.000000
v 2.488991 1.100000 -1.130779
v 1.020014 1.100000 -1.901100
v -3.584408 1.100000 -1.860566
v 3.137690 1.100000 -0.306391
v 2.537689 0.900000 -0.306391
v 1.888991 0.900000 -1.130779
v 0.956486 0.900000 -1.833537
v -3.584408 0.900000 -1.860566
v 2.605263 0.900000 0.000000
v -3.665494 0.900000 -0.800000
v -3.700000 0.400000 -0.600000
v -3.900000 0.897942 0.000000
v -3.665494 0.400000 -0.600000
v -3.700000 0.400000 0.000000
v -3.900000 1.100000 0.000000
v -3.665494 1.100000 0.000000
v -3.665494 0.400000 0.000000
vn -0.844630 -0.475417 0.246040
vn -0.708121 -0.642933 0.291849
vn -0.708121 0.642933 0.291849
vn -0.714591 0.699026 0.025880
vn 0.707083 0.707083 0.000000
vn 0.650136 0.595782 0.471480
vn 0.650136 -0.595782 0.471480
vn 0.707083 -0.707083 0.000000
vn -0.325541 -0.623951 0.710410
vn -0.325541 0.623951 0.710410
vn -0.781213 0.440504 -0.442305
vn -0.982391 -0.186773 0.000000
vn 0.344218 -0.671468 0.656178
vn -0.647908 0.072542 -0.758232
vn 0.385571 -0.687246 0.615619
vn 0.857051 -0.441755 0.265114
vn 0.586627 -0.516068 -0.624073
vn -0.186499 -0.423566 -0.886441
vn 0.265145 -0.686209 0.677328
vn 0.102390 -0.677450 0.728385
vn 0.265145 0.686209 0.677328
vn 0.102390 0.677450 0.728385
vn 0.344218 0.671468 0.656178
vn 0.385571 0.687246 0.615619
vn -0.138462 0.990356 0.000000
vn -0.159703 0.984924 -0.066042
vn -0.162053 0.974883 -0.152745
vn 0.697775 0.715781 -0.026612
vn 0.525163 0.641896 -0.558702
vn -0.159368 0.794244 -0.586261
vn -0.455336 -0.764794 0.455763
vn 0.600024 -0.662404 0.448469
vn -0.707083 0.707083 0.000000
vn -0.981811 -0.189795 0.000000
vn -0.560289 -0.828272 0.000000
vn -0.708121 0.642933 -0.291849
vn -0.708121 -0.642933 -0.291849
vn -0.844630 -0.475417 -0.246040
vn -0.714591 0.699026 -0.025880
vn 0.650136 -0.595782 -0.471480
vn 0.650136 0.595782 -0.471480
vn -0.325541 0.623951 -0.710410
vn -0.325541 -0.623951 -0.710410
vn 0.102390 -0.677450 -0.728385
vn -0.186499 -0.423566 0.886441
vn 0.265145 -0.686209 -0.677328
vn 0.586627 -0.516068 0.624073
vn 0.857051 -0.441755 -0.265114
vn -0.647908 0.072542 0.758232
vn 0.385571 -0.687246 -0.615619
vn 0.344218 -0.671468 -0.656178
vn -0.781213 0.440504 0.442305
vn 0.265145 0.686209 -0.677328
vn 0.102390 0.677450 -0.728385
vn 0.344218 0.671468 -0.656178
vn 0.385571 0.687246 -0.615619
vn -0.159368 0.794244 0.586261
vn 0.525163 0.641896 0.558702
vn -0.162053 0.974883 0.152745
vn 0.697775 0.715781 0.026612
vn -0.159703 0.984924 0.066042
vn 0.600024 -0.662404 -0.448469
vn -0.455336 -0.764794 -0.455763
s 1
f 120//102 119//103 122//104
f 120//102 122//104 123//105
f 153//106 126//107 125//108
f 153//106 125//108 149//109
f 119//103 133//110 134//111
f 119//103 134//111 122//104
f 140//112 175//113 149//109
f 140//112 149//109 125//108
f 140//112 125//108 132//114
f 141//115 140//112 132//114
f 141//115 132//114 127//116
f 144//117 119//103 120//102
f 143//118 119//103 144//117
f 142//119 141//115 127//116
f 142//119 127//116 129//120
f 142//119 129//120 121//121
f 143//118 142//119 121//121
f 121//121 119//103 143//118
f 133//110 119//103 121//121
f 130//122 124//123 121//121
f 130//122 121//121 129//120
f 126//107 131//124 132//114
f 126//107 132//114 125//108
f 128//125 130//122 129//120
f 128//125 129//120 127//116
f 131//124 128//125 127//116
f 131//124 127//116 132//114
f 124//123 134//111 133//110
f 124//123 133//110 121//121
f 153//106 166//126 139//127
f 126//107 153//106 139//127
f 131//124 126//107 139//127
f 131//124 139//127 136//128
f 128//125 131//124 136//128
f 122//104 135//129 123//105
f 122//104 138//130 135//129
f 128//125 136//128 137//131
f 130//122 128//125 137//131
f 124//123 130//122 137//131
f 122//104 137//131 138//130
f 122//104 124//123 137//131
f 122//104 134//111 124//123
f 136//128 139//127 140//112
f 136//128 140//112 141//115
f 142//119 137//131 136//128
f 138//130 137//131 142//119
f 138//130 142//119 143//118
f 144//117 135//129 138//130
f 144//117 138//130 143//118
f 140//112 139//127 166//126
f 140//112 166//126 175//113
f 136//128 141//115 142//119
f 144//117 120//102 145//132
f 144//117 145//132 146//133
f 120//102 123//105 181//134
f 120//102 181//134 178//135
f 123//105 135//129 182//106
f 123//105 182//106 181//134
f 135//129 144//117 182//106
f 144//117 183//109 182//106
f 144//117 146//133 183//109
f 146//133 145//132 180//136
f 146//133 180//136 183//109
f 145//132 120//102 178//135
f 145//132 178//135 180//136
f 151//137 147//138 148//139
f 151//137 148//139 152//140
f 153//106 149//109 155//141
f 153//106 155//141 156//142
f 164//143 163//144 147//138
f 164//143 147//138 151//137
f 147//138 163//144 150//145
f 147//138 150//145 173//146
f 150//145 159//147 173//146
f 148//139 147//138 174//148
f 147//138 173//146 174//148
f 148//139 174//148 176//149
f 159//147 172//150 173//146
f 159//147 157//151 172//150
f 157//151 162//152 172//150
f 162//152 171//153 172//150
f 162//152 155//141 171//153
f 155//141 175//113 171//153
f 155//141 149//109 175//113
f 160//154 159//147 150//145
f 160//154 150//145 154//155
f 156//142 155//141 162//152
f 156//142 162//152 161//156
f 158//157 157//151 159//147
f 158//157 159//147 160//154
f 161//156 162//152 157//151
f 161//156 157//151 158//157
f 154//155 150//145 163//144
f 154//155 163//144 164//143
f 151//137 154//155 164//143
f 151//137 168//158 154//155
f 168//158 160//154 154//155
f 151//137 152//140 169//159
f 151//137 169//159 168//158
f 168//158 167//160 160//154
f 152//140 165//161 169//159
f 167//160 158//157 160//154
f 167//160 161//156 158//157
f 167//160 170//162 161//156
f 170//162 156//142 161//156
f 170//162 166//126 156//142
f 166//126 153//106 156//142
f 167//160 172//150 171//153
f 167//160 171//153 170//162
f 173//146 167//160 168//158
f 169//159 174//148 173//146
f 169//159 173//146 168//158
f 176//149 174//148 169//159
f 176//149 169//159 165//161
f 171//153 175//113 166//126
f 171//153 166//126 170//162
f 167//160 173//146 172//150
f 176//149 179//163 177//164
f 176//149 177//164 148//139
f 148//139 178//135 181//134
f 148//139 181//134 152//140
f 152//140 181//134 182//106
f 152//140 182//106 165//161
f 165//161 182//106 183//109
f 165//161 183//109 176//149
f 183//109 179//163 176//149
f 179//163 183//109 180//136
f 179//163 180//136 177//164
f 177//164 180//136 178//135
f 177//164 178//135 148//139
