# Blender v2.65 (sub 0) OBJ File: 'boat.blend'
# www.blender.org
o Hull_Cube.002
v -3.979205 -0.215897 0.200000
v 1.426376 -0.426552 0.200000
v 4.668116 1.093624 0.200000
v 2.731264 -0.251615 0.200000
v 4.653347 0.961129 0.200000
v 4.207111 0.911760 0.200000
v 3.578900 0.262557 0.200000
v -3.979205 -0.115897 1.000000
v 0.426376 -0.326552 1.000000
v 3.668116 1.093624 1.000000
v 1.731264 -0.151615 1.000000
v 3.653347 0.961129 1.000000
v 3.207111 0.911760 1.000000
v 2.578900 0.362557 1.000000
v -3.979205 0.184103 1.600000
v -1.673624 -0.026552 1.500000
v 2.468116 1.093624 1.600000
v 1.031264 0.097193 1.390239
v 2.453347 0.961129 1.600000
v 2.007112 0.911760 1.600000
v 2.039707 0.543033 1.471816
v -3.979205 0.784103 2.000000
v -2.073624 0.573448 1.900000
v -4.178157 1.000000 2.100000
v 1.168116 1.093624 2.000000
v 0.031264 0.326478 1.670715
v 1.153346 0.961129 2.000000
v 0.707111 0.911760 2.000000
v 0.488889 0.589651 1.806173
v -4.151697 0.838289 2.000000
v 0.568116 1.093624 2.100000
v 0.553346 0.961129 2.100000
v 0.107111 0.911760 2.100000
v -4.151697 0.838289 2.100000
v 0.775805 0.919360 2.000000
v -4.138526 0.837474 1.600000
v -4.308493 0.976212 1.999848
v -4.302033 0.894501 1.999848
v 1.978681 1.081095 1.600000
v 3.217718 1.079897 1.000000
v 3.873025 1.074626 0.200000
v -3.970930 1.003629 1.801285
v 1.065025 1.077440 1.801285
v 1.580738 0.909230 1.601523
v 2.519775 0.508033 1.001523
v 2.875082 0.502761 0.201523
v -3.968873 0.831764 1.802808
v 0.667082 0.905575 1.802808
v -3.968873 0.231545 1.528103
v 0.427018 0.298176 1.535151
v 1.068424 0.299537 1.309602
v 1.441988 0.296571 0.921940
v 1.723925 0.290970 0.203003
v -3.979205 -0.215897 0.000000
v -3.979205 -0.215897 -0.200000
v 1.426376 -0.426552 -0.200000
v 1.426376 -0.426552 0.000000
v -4.178157 1.000000 0.000000
v 4.668116 1.093624 -0.200000
v 4.668116 1.093624 0.000000
v 2.731264 -0.251615 -0.200000
v 2.731264 -0.251615 0.000000
v 4.653347 0.961129 -0.200000
v 4.653347 0.961129 0.000000
v 4.207111 0.911760 0.000000
v 4.207111 0.911760 -0.200000
v 3.578900 0.262557 0.000000
v 3.578900 0.262557 -0.200000
v -3.979205 -0.115897 -1.000000
v 0.426376 -0.326552 -1.000000
v 3.668116 1.093624 -1.000000
v 1.731264 -0.151615 -1.000000
v 3.653347 0.961129 -1.000000
v 3.207111 0.911760 -1.000000
v 2.578900 0.362557 -1.000000
v -3.979205 0.184103 -1.600000
v -1.673624 -0.026552 -1.500000
v 2.468116 1.093624 -1.600000
v 1.031264 0.097193 -1.390239
v 2.453347 0.961129 -1.600000
v 2.007112 0.911760 -1.600000
v 2.039707 0.543033 -1.471816
v -3.979205 0.784103 -2.000000
v -2.073624 0.573448 -1.900000
v -4.178157 1.000000 -2.100000
v 1.168116 1.093624 -2.000000
v 0.031264 0.326478 -1.670715
v 1.153346 0.961129 -2.000000
v 0.707111 0.911760 -2.000000
v 0.488889 0.589651 -1.806173
v -4.151697 0.838289 -2.000000
v 0.568116 1.093624 -2.100000
v 0.553346 0.961129 -2.100000
v 0.107111 0.911760 -2.100000
v -4.151697 0.838289 -2.100000
v 0.775805 0.919360 -2.000000
v -4.151031 0.834216 0.000000
v -4.138526 0.837474 -1.600000
v -4.308493 0.976212 0.000000
v -4.308493 0.976212 -1.999848
v -4.302033 0.894501 -1.999848
v -4.301367 0.890427 0.000000
v -3.970930 1.002193 0.000000
v 1.978681 1.081095 -1.600000
v 3.898405 1.074895 0.000000
v 3.217718 1.079897 -1.000000
v 3.873025 1.074626 -0.200000
v -3.970930 1.003629 -1.801285
v 1.065025 1.077440 -1.801285
v -3.968872 0.230329 0.000000
v 1.580738 0.909230 -1.601523
v 2.900462 0.503030 0.000000
v 2.519775 0.508033 -1.001523
v 2.875082 0.502761 -0.201523
v -3.968873 0.831764 -1.802808
v 0.667082 0.905575 -1.802808
v 1.752118 0.290877 0.000000
v -3.968873 0.231545 -1.528103
v 0.427018 0.298176 -1.535151
v 1.068424 0.299537 -1.309602
v 1.441988 0.296571 -0.921940
v 1.723925 0.290970 -0.203003
vn -0.108939 0.984677 -0.136174
vn -0.993845 0.110782 0.000000
vn -0.109963 0.993936 0.000000
vn -0.623186 0.069466 -0.778982
vn 0.350226 0.936665 -0.000001
vn 0.350202 0.936625 0.009623
vn 0.325351 0.945592 -0.001818
vn 0.350222 0.936655 -0.004645
vn -0.446659 0.049789 -0.893318
vn -0.107397 0.970737 -0.214793
vn -0.103549 0.935960 -0.336535
vn -0.293928 0.032765 -0.955266
vn -0.016095 0.998704 -0.048287
vn -0.091786 0.829632 -0.550715
vn 0.000000 0.000000 -1.000000
vn -0.164371 0.018323 -0.986228
vn 0.585117 0.079131 -0.807079
vn 0.019722 -0.999804 0.001536
vn 0.014161 -0.996283 0.084969
vn 0.014615 -0.997178 0.073633
vn 0.014311 -0.999898 0.000368
vn 0.022525 -0.996787 0.076868
vn 0.024103 -0.999709 0.000858
vn 0.026254 -0.999191 0.030453
vn 0.996726 0.080850 0.000084
vn 0.179548 -0.983749 -0.000000
vn 0.027880 -0.997947 0.057662
vn -0.999928 -0.011971 0.000009
vn -0.999996 -0.002666 0.000889
vn -1.000000 0.000000 -0.000000
vn -0.108939 0.984677 0.136174
vn -0.623186 0.069466 0.778982
vn 0.350226 0.936664 0.001791
vn 0.319643 0.947528 0.004428
vn 0.350202 0.936625 -0.009623
vn 0.350226 0.936665 0.000001
vn -0.446659 0.049789 0.893318
vn -0.107397 0.970737 0.214793
vn -0.103549 0.935960 0.336535
vn -0.293928 0.032765 0.955266
vn -0.016095 0.998704 0.048287
vn -0.091786 0.829632 0.550714
vn -0.091786 0.829631 0.550715
vn -0.091786 0.829632 0.550715
vn -0.164371 0.018323 0.986228
vn 0.000000 0.000000 1.000000
vn 0.585117 0.079131 0.807079
vn 0.014655 -0.999891 0.001980
vn 0.018801 -0.997266 -0.071469
vn 0.019585 -0.992878 -0.117512
vn 0.014311 -0.999898 -0.000368
vn 0.022525 -0.996787 -0.076868
vn 0.024103 -0.999709 -0.000858
vn 0.026254 -0.999191 -0.030453
vn 0.996726 0.080850 -0.000084
vn 0.027880 -0.997947 -0.057662
vn -0.999928 -0.011971 -0.000009
vn -0.999996 -0.002666 -0.000889
vn -0.357646 0.893521 -0.271371
vn -0.332774 0.942991 0.000000
vn -0.047121 0.998871 0.000000
vn -0.069216 0.990539 -0.118351
vn 0.660787 0.750542 0.000000
vn 0.648366 0.759789 -0.047975
vn -0.597003 0.720328 -0.353099
vn -0.623737 0.781610 0.000000
vn -0.343120 0.924314 -0.166875
vn -0.440352 0.897794 0.000000
vn -0.226173 0.805170 -0.548173
vn -0.026765 0.916471 -0.399152
vn -0.124943 0.619617 -0.774865
vn -0.314371 0.830622 -0.459517
vn -0.439253 0.603778 -0.665151
vn 0.627461 0.750114 -0.208747
vn 0.012055 0.770012 -0.637898
vn 0.561480 0.638295 -0.526566
vn 0.056063 0.311624 -0.948515
vn -0.336161 0.465438 -0.818751
vn -0.249245 0.698386 -0.670888
vn 0.753899 0.656911 -0.006012
vn 0.373669 0.902524 -0.213996
vn -0.108554 0.725822 -0.679250
vn -0.060579 0.581408 -0.811335
vn -0.099643 0.582842 -0.806452
vn -0.003418 0.465499 -0.885006
vn -0.549791 -0.668661 -0.500565
vn -0.236061 0.512497 -0.825556
vn -0.334666 -0.575976 -0.745811
vn -0.370098 0.787072 -0.493454
vn -0.609851 0.666128 -0.429304
vn -0.068819 0.825282 -0.560442
vn -0.162908 0.890011 -0.425794
vn -0.712149 0.702017 0.000000
vn -0.107181 0.990661 -0.084231
vn -0.104129 0.993927 -0.034944
vn -0.104373 0.994507 0.000000
vn -0.135624 -0.640187 -0.756127
vn -0.074160 0.248817 -0.965697
vn -0.661397 0.155217 -0.733757
vn -0.290750 -0.913144 -0.285623
vn -0.374859 0.915952 -0.143040
vn -0.622059 -0.753075 -0.214209
vn -0.845698 -0.533616 0.000000
vn -0.355937 0.934477 0.000000
vn 0.752647 0.630390 -0.189886
vn -0.357646 0.893521 0.271371
vn -0.069216 0.990539 0.118351
vn 0.648366 0.759789 0.047975
vn -0.597003 0.720328 0.353099
vn -0.343120 0.924314 0.166875
vn -0.226173 0.805170 0.548173
vn -0.124943 0.619617 0.774865
vn -0.026765 0.916471 0.399152
vn -0.314371 0.830622 0.459517
vn -0.439253 0.603778 0.665151
vn 0.627491 0.750114 0.208747
vn 0.012055 0.770012 0.637898
vn 0.056063 0.311624 0.948515
vn 0.561480 0.638295 0.526566
vn -0.336161 0.465438 0.818751
vn -0.249245 0.698386 0.670888
vn 0.753899 0.656911 0.006012
vn 0.373669 0.902524 0.213996
vn -0.108554 0.725822 0.679250
vn -0.060579 0.581408 0.811335
vn -0.099643 0.582842 0.806452
vn -0.003418 0.465499 0.885006
vn -0.549791 -0.668661 0.500565
vn -0.334666 -0.575976 0.745811
vn -0.236061 0.512497 0.825556
vn -0.370098 0.787072 0.493454
vn -0.609851 0.666128 0.429304
vn -0.104129 0.993927 0.034944
vn -0.107181 0.990661 0.084231
vn -0.162908 0.890011 0.425794
vn -0.068819 0.825282 0.560442
vn -0.135624 -0.640187 0.756127
vn -0.290750 -0.913144 0.285623
vn -0.661397 0.155217 0.733757
vn -0.074160 0.248817 0.965697
vn -0.374859 0.915952 0.143040
vn -0.622059 -0.753075 0.214209
s off
f 5//1 6//1 13//1
f 5//1 13//1 12//1
f 3//2 60//2 64//2
f 3//2 64//2 5//2
f 5//3 64//3 65//3
f 5//3 65//3 6//3
f 3//4 5//4 12//4
f 3//4 12//4 10//4
f 34//5 30//5 38//5
f 30//6 36//6 38//6
f 36//7 102//7 38//7
f 36//8 97//8 102//8
f 10//9 12//9 19//9
f 10//9 19//9 17//9
f 12//10 13//10 20//10
f 12//10 20//10 19//10
f 20//11 28//11 35//11
f 20//11 35//11 27//11
f 19//11 20//11 27//11
f 17//12 19//12 27//12
f 17//12 27//12 25//12
f 28//13 30//13 34//13
f 28//13 34//13 33//13
f 28//14 33//14 32//14
f 27//14 28//14 32//14
f 27//15 35//15 28//15
f 25//16 27//16 32//16
f 25//16 32//16 31//16
f 24//15 31//15 32//15
f 24//15 32//15 34//15
f 32//15 33//15 34//15
f 24//17 34//17 38//17
f 24//17 38//17 37//17
f 31//18 24//18 42//18
f 25//19 31//19 42//19
f 25//20 42//20 43//20
f 103//21 42//21 24//21
f 103//21 24//21 58//21
f 25//22 43//22 39//22
f 25//22 39//22 17//22
f 60//23 3//23 41//23
f 60//23 41//23 105//23
f 41//24 3//24 10//24
f 41//24 10//24 40//24
f 102//25 99//25 37//25
f 102//25 37//25 38//25
f 58//26 24//26 37//26
f 58//26 37//26 99//26
f 40//27 10//27 17//27
f 40//27 17//27 39//27
f 42//28 103//28 47//28
f 103//29 110//29 47//29
f 110//30 49//30 47//30
f 97//15 102//15 99//15
f 97//15 99//15 58//15
f 63//31 73//31 74//31
f 63//31 74//31 66//31
f 59//2 63//2 64//2
f 59//2 64//2 60//2
f 63//3 66//3 65//3
f 63//3 65//3 64//3
f 59//32 71//32 73//32
f 59//32 73//32 63//32
f 101//33 102//33 97//33
f 101//34 97//34 98//34
f 101//35 98//35 91//35
f 95//36 101//36 91//36
f 71//37 78//37 80//37
f 71//37 80//37 73//37
f 73//38 80//38 81//38
f 73//38 81//38 74//38
f 80//39 89//39 81//39
f 80//39 88//39 89//39
f 88//15 96//15 89//15
f 78//40 86//40 88//40
f 78//40 88//40 80//40
f 89//41 94//41 95//41
f 89//41 95//41 91//41
f 94//42 89//42 96//42
f 88//43 94//43 96//43
f 88//44 93//44 94//44
f 86//45 92//45 93//45
f 86//45 93//45 88//45
f 85//46 93//46 92//46
f 85//46 95//46 93//46
f 95//46 94//46 93//46
f 85//47 100//47 101//47
f 85//47 101//47 95//47
f 109//48 108//48 85//48
f 86//49 109//49 85//49
f 86//50 85//50 92//50
f 103//51 58//51 85//51
f 103//51 85//51 108//51
f 86//52 78//52 104//52
f 86//52 104//52 109//52
f 60//53 105//53 107//53
f 60//53 107//53 59//53
f 107//54 106//54 71//54
f 107//54 71//54 59//54
f 102//55 101//55 100//55
f 102//55 100//55 99//55
f 58//26 99//26 100//26
f 58//26 100//26 85//26
f 106//56 104//56 78//56
f 106//56 78//56 71//56
f 108//57 115//57 103//57
f 115//58 110//58 103//58
f 115//30 118//30 110//30
s 1
f 4//59 62//60 57//61
f 4//59 57//61 2//62
f 54//63 1//64 2//62
f 54//63 2//62 57//61
f 7//65 67//66 62//60
f 7//65 62//60 4//59
f 6//67 65//68 67//66
f 6//67 67//66 7//65
f 11//69 9//70 18//71
f 13//72 6//67 14//73
f 4//59 2//62 9//70
f 4//59 9//70 11//69
f 14//73 7//65 11//69
f 9//70 2//62 8//74
f 16//75 15//76 22//77
f 14//73 11//69 21//78
f 20//79 13//72 21//78
f 8//74 36//80 15//76
f 9//70 8//74 16//75
f 30//81 28//82 22//77
f 18//71 16//75 26//83
f 29//84 21//78 26//83
f 21//78 29//84 28//82
f 15//76 36//80 30//81
f 20//79 21//78 28//82
f 21//78 18//71 26//83
f 13//72 14//73 21//78
f 29//84 26//83 23//85
f 28//82 29//84 23//85
f 11//69 18//71 21//78
f 16//75 23//85 26//83
f 9//70 16//75 18//71
f 23//85 16//75 22//77
f 8//74 15//76 16//75
f 22//77 15//76 30//81
f 28//82 23//85 22//77
f 40//86 44//87 39//88
f 45//89 44//87 40//86
f 49//90 50//91 51//92
f 110//93 49//90 51//92
f 110//93 51//92 52//94
f 110//93 52//94 53//95
f 117//96 110//93 53//95
f 43//97 48//98 47//99
f 43//97 47//99 42//100
f 40//86 46//101 45//89
f 41//102 46//101 40//86
f 39//88 44//87 48//98
f 39//88 48//98 43//97
f 105//103 112//104 46//101
f 105//103 46//101 41//102
f 2//62 1//64 8//74
f 6//67 7//65 14//73
f 7//65 4//59 11//69
f 50//91 47//99 48//98
f 112//104 117//96 53//95
f 112//104 53//95 46//101
f 48//98 44//87 50//91
f 46//101 53//95 45//89
f 45//89 53//95 52//94
f 52//94 51//92 45//89
f 50//91 44//87 51//92
f 45//89 51//92 44//87
f 97//105 36//80 8//74
f 97//105 8//74 54//63
f 8//74 1//64 54//63
f 49//90 47//99 50//91
f 61//106 56//107 57//61
f 61//106 57//61 62//60
f 54//63 57//61 56//107
f 54//63 56//107 55//108
f 68//109 61//106 62//60
f 68//109 62//60 67//66
f 66//110 68//109 67//66
f 66//110 67//66 65//68
f 72//111 79//112 70//113
f 74//114 75//115 66//110
f 61//106 72//111 70//113
f 61//106 70//113 56//107
f 75//115 72//111 68//109
f 70//113 69//116 56//107
f 77//117 83//118 76//119
f 75//115 82//120 72//111
f 81//121 82//120 74//114
f 69//116 76//119 98//122
f 70//113 77//117 69//116
f 91//123 83//118 89//124
f 79//112 87//125 77//117
f 90//126 87//125 82//120
f 82//120 89//124 90//126
f 76//119 91//123 98//122
f 81//121 89//124 82//120
f 82//120 87//125 79//112
f 74//114 82//120 75//115
f 90//126 84//127 87//125
f 89//124 84//127 90//126
f 72//111 82//120 79//112
f 77//117 87//125 84//127
f 70//113 79//112 77//117
f 84//127 83//118 77//117
f 69//116 77//117 76//119
f 83//118 91//123 76//119
f 89//124 83//118 84//127
f 106//128 104//129 111//130
f 113//131 106//128 111//130
f 117//96 118//132 110//93
f 117//96 122//133 118//132
f 122//133 121//134 118//132
f 121//134 120//135 118//132
f 120//135 119//136 118//132
f 109//137 108//138 115//139
f 109//137 115//139 116//140
f 106//128 113//131 114//141
f 107//142 106//128 114//141
f 104//129 109//137 116//140
f 104//129 116//140 111//130
f 105//103 107//142 114//141
f 105//103 114//141 112//104
f 56//107 69//116 55//108
f 66//110 75//115 68//109
f 68//109 72//111 61//106
f 119//136 116//140 115//139
f 112//104 114//141 122//133
f 112//104 122//133 117//96
f 116//140 119//136 111//130
f 114//141 113//131 122//133
f 113//131 121//134 122//133
f 121//134 113//131 120//135
f 119//136 120//135 111//130
f 113//131 111//130 120//135
f 97//105 69//116 98//122
f 97//105 54//63 69//116
f 54//63 55//108 69//116
f 118//132 119//136 115//139
